<svg width="41" height="41" viewBox="0 0 51 51" fill="none" xmlns="http://www.w3.org/2000/svg">
<g filter="url(#filter0_d)">
<rect x="4" y="4" width="43" height="43" rx="21.5" fill="#E88D67"/>
</g>
<path d="M25.1279 15H26.8721C27.0271 15 27.1046 15.0775 27.1046 15.2326V35.6977C27.1046 35.8527 27.0271 35.9302 26.8721 35.9302H25.1279C24.9728 35.9302 24.8953 35.8527 24.8953 35.6977V15.2326C24.8953 15.0775 24.9728 15 25.1279 15Z" fill="white"/>
<path d="M16.2326 24.3605H35.7674C35.9225 24.3605 36 24.438 36 24.5931V26.3372C36 26.4923 35.9225 26.5698 35.7674 26.5698H16.2326C16.0775 26.5698 16 26.4923 16 26.3372V24.5931C16 24.438 16.0775 24.3605 16.2326 24.3605Z" fill="white"/>
<defs>
<filter id="filter0_d" x="0" y="0" width="51" height="51" filterUnits="userSpaceOnUse" color-interpolation-filters="sRGB">
<feFlood flood-opacity="0" result="BackgroundImageFix"/>
<feColorMatrix in="SourceAlpha" type="matrix" values="0 0 0 0 0 0 0 0 0 0 0 0 0 0 0 0 0 0 127 0"/>
<feOffset/>
<feGaussianBlur stdDeviation="2"/>
<feColorMatrix type="matrix" values="0 0 0 0 0.909804 0 0 0 0 0.552941 0 0 0 0 0.403922 0 0 0 1 0"/>
<feBlend mode="normal" in2="BackgroundImageFix" result="effect1_dropShadow"/>
<feBlend mode="normal" in="SourceGraphic" in2="effect1_dropShadow" result="shape"/>
</filter>
</defs>
</svg>
